<svg xmlns="http://www.w3.org/2000/svg" xmlns:xlink="http://www.w3.org/1999/xlink" width="160" zoomAndPan="magnify" viewBox="0 0 120 30.000001" height="40" preserveAspectRatio="xMidYMid meet" version="1.0"><defs><g/><clipPath id="d965a8ebab"><path d="M 1.933594 0 L 118.0625 0 L 118.0625 29.03125 L 1.933594 29.03125 Z M 1.933594 0 " clip-rule="nonzero"/></clipPath><linearGradient x1="0" gradientTransform="matrix(0.725806, 0, 0, 0.725806, 1.935482, 0.00000193548)" y1="0" x2="159.999993" gradientUnits="userSpaceOnUse" y2="0" id="3adea47113"><stop stop-opacity="1" stop-color="rgb(0%, 0%, 0%)" offset="0"/><stop stop-opacity="1" stop-color="rgb(0.0518799%, 0.0457764%, 0.408936%)" offset="0.00390625"/><stop stop-opacity="1" stop-color="rgb(0.10376%, 0.0915527%, 0.819397%)" offset="0.0078125"/><stop stop-opacity="1" stop-color="rgb(0.15564%, 0.137329%, 1.229858%)" offset="0.0117188"/><stop stop-opacity="1" stop-color="rgb(0.209045%, 0.183105%, 1.64032%)" offset="0.015625"/><stop stop-opacity="1" stop-color="rgb(0.260925%, 0.228882%, 2.049255%)" offset="0.0195312"/><stop stop-opacity="1" stop-color="rgb(0.312805%, 0.276184%, 2.459717%)" offset="0.0234375"/><stop stop-opacity="1" stop-color="rgb(0.364685%, 0.32196%, 2.870178%)" offset="0.0273438"/><stop stop-opacity="1" stop-color="rgb(0.418091%, 0.367737%, 3.28064%)" offset="0.03125"/><stop stop-opacity="1" stop-color="rgb(0.469971%, 0.413513%, 3.689575%)" offset="0.0351562"/><stop stop-opacity="1" stop-color="rgb(0.523376%, 0.460815%, 4.100037%)" offset="0.0390625"/><stop stop-opacity="1" stop-color="rgb(0.575256%, 0.506592%, 4.510498%)" offset="0.0429688"/><stop stop-opacity="1" stop-color="rgb(0.627136%, 0.552368%, 4.920959%)" offset="0.046875"/><stop stop-opacity="1" stop-color="rgb(0.679016%, 0.598145%, 5.331421%)" offset="0.0507812"/><stop stop-opacity="1" stop-color="rgb(0.732422%, 0.643921%, 5.741882%)" offset="0.0546875"/><stop stop-opacity="1" stop-color="rgb(0.784302%, 0.689697%, 6.150818%)" offset="0.0585938"/><stop stop-opacity="1" stop-color="rgb(0.836182%, 0.737%, 6.561279%)" offset="0.0625"/><stop stop-opacity="1" stop-color="rgb(0.888062%, 0.782776%, 6.971741%)" offset="0.0664062"/><stop stop-opacity="1" stop-color="rgb(0.941467%, 0.828552%, 7.382202%)" offset="0.0703125"/><stop stop-opacity="1" stop-color="rgb(0.993347%, 0.874329%, 7.791138%)" offset="0.0742188"/><stop stop-opacity="1" stop-color="rgb(1.046753%, 0.921631%, 8.201599%)" offset="0.078125"/><stop stop-opacity="1" stop-color="rgb(1.098633%, 0.967407%, 8.612061%)" offset="0.0820312"/><stop stop-opacity="1" stop-color="rgb(1.150513%, 1.013184%, 9.022522%)" offset="0.0859375"/><stop stop-opacity="1" stop-color="rgb(1.202393%, 1.05896%, 9.432983%)" offset="0.0898438"/><stop stop-opacity="1" stop-color="rgb(1.255798%, 1.104736%, 9.843445%)" offset="0.09375"/><stop stop-opacity="1" stop-color="rgb(1.307678%, 1.150513%, 10.25238%)" offset="0.0976562"/><stop stop-opacity="1" stop-color="rgb(1.359558%, 1.197815%, 10.662842%)" offset="0.101562"/><stop stop-opacity="1" stop-color="rgb(1.411438%, 1.243591%, 11.073303%)" offset="0.105469"/><stop stop-opacity="1" stop-color="rgb(1.464844%, 1.289368%, 11.483765%)" offset="0.109375"/><stop stop-opacity="1" stop-color="rgb(1.516724%, 1.335144%, 11.8927%)" offset="0.113281"/><stop stop-opacity="1" stop-color="rgb(1.570129%, 1.382446%, 12.303162%)" offset="0.117188"/><stop stop-opacity="1" stop-color="rgb(1.622009%, 1.428223%, 12.713623%)" offset="0.121094"/><stop stop-opacity="1" stop-color="rgb(1.673889%, 1.473999%, 13.124084%)" offset="0.125"/><stop stop-opacity="1" stop-color="rgb(1.725769%, 1.519775%, 13.534546%)" offset="0.128906"/><stop stop-opacity="1" stop-color="rgb(1.779175%, 1.567078%, 13.945007%)" offset="0.132812"/><stop stop-opacity="1" stop-color="rgb(1.831055%, 1.612854%, 14.353943%)" offset="0.136719"/><stop stop-opacity="1" stop-color="rgb(1.882935%, 1.65863%, 14.764404%)" offset="0.140625"/><stop stop-opacity="1" stop-color="rgb(1.934814%, 1.704407%, 15.174866%)" offset="0.144531"/><stop stop-opacity="1" stop-color="rgb(1.98822%, 1.750183%, 15.585327%)" offset="0.148438"/><stop stop-opacity="1" stop-color="rgb(2.0401%, 1.795959%, 15.994263%)" offset="0.152344"/><stop stop-opacity="1" stop-color="rgb(2.093506%, 1.843262%, 16.404724%)" offset="0.15625"/><stop stop-opacity="1" stop-color="rgb(2.145386%, 1.889038%, 16.815186%)" offset="0.160156"/><stop stop-opacity="1" stop-color="rgb(2.197266%, 1.934814%, 17.225647%)" offset="0.164062"/><stop stop-opacity="1" stop-color="rgb(2.249146%, 1.980591%, 17.636108%)" offset="0.167969"/><stop stop-opacity="1" stop-color="rgb(2.302551%, 2.027893%, 18.04657%)" offset="0.171875"/><stop stop-opacity="1" stop-color="rgb(2.354431%, 2.073669%, 18.455505%)" offset="0.175781"/><stop stop-opacity="1" stop-color="rgb(2.406311%, 2.119446%, 18.865967%)" offset="0.179688"/><stop stop-opacity="1" stop-color="rgb(2.458191%, 2.165222%, 19.276428%)" offset="0.183594"/><stop stop-opacity="1" stop-color="rgb(2.511597%, 2.210999%, 19.68689%)" offset="0.1875"/><stop stop-opacity="1" stop-color="rgb(2.563477%, 2.256775%, 20.095825%)" offset="0.191406"/><stop stop-opacity="1" stop-color="rgb(2.616882%, 2.304077%, 20.506287%)" offset="0.195312"/><stop stop-opacity="1" stop-color="rgb(2.668762%, 2.349854%, 20.916748%)" offset="0.199219"/><stop stop-opacity="1" stop-color="rgb(2.720642%, 2.39563%, 21.327209%)" offset="0.203125"/><stop stop-opacity="1" stop-color="rgb(2.772522%, 2.441406%, 21.737671%)" offset="0.207031"/><stop stop-opacity="1" stop-color="rgb(2.825928%, 2.488708%, 22.148132%)" offset="0.210938"/><stop stop-opacity="1" stop-color="rgb(2.877808%, 2.534485%, 22.557068%)" offset="0.214844"/><stop stop-opacity="1" stop-color="rgb(2.931213%, 2.580261%, 22.967529%)" offset="0.21875"/><stop stop-opacity="1" stop-color="rgb(2.983093%, 2.626038%, 23.377991%)" offset="0.222656"/><stop stop-opacity="1" stop-color="rgb(3.034973%, 2.67334%, 23.788452%)" offset="0.226562"/><stop stop-opacity="1" stop-color="rgb(3.086853%, 2.719116%, 24.197388%)" offset="0.230469"/><stop stop-opacity="1" stop-color="rgb(3.140259%, 2.764893%, 24.607849%)" offset="0.234375"/><stop stop-opacity="1" stop-color="rgb(3.192139%, 2.810669%, 25.018311%)" offset="0.238281"/><stop stop-opacity="1" stop-color="rgb(3.244019%, 2.856445%, 25.428772%)" offset="0.242188"/><stop stop-opacity="1" stop-color="rgb(3.295898%, 2.902222%, 25.839233%)" offset="0.246094"/><stop stop-opacity="1" stop-color="rgb(3.349304%, 2.949524%, 26.249695%)" offset="0.25"/><stop stop-opacity="1" stop-color="rgb(3.401184%, 2.9953%, 26.65863%)" offset="0.253906"/><stop stop-opacity="1" stop-color="rgb(3.45459%, 3.041077%, 27.069092%)" offset="0.257812"/><stop stop-opacity="1" stop-color="rgb(3.50647%, 3.086853%, 27.479553%)" offset="0.261719"/><stop stop-opacity="1" stop-color="rgb(3.55835%, 3.134155%, 27.890015%)" offset="0.265625"/><stop stop-opacity="1" stop-color="rgb(3.610229%, 3.179932%, 28.29895%)" offset="0.269531"/><stop stop-opacity="1" stop-color="rgb(3.663635%, 3.225708%, 28.709412%)" offset="0.273438"/><stop stop-opacity="1" stop-color="rgb(3.715515%, 3.271484%, 29.119873%)" offset="0.277344"/><stop stop-opacity="1" stop-color="rgb(3.767395%, 3.317261%, 29.530334%)" offset="0.28125"/><stop stop-opacity="1" stop-color="rgb(3.819275%, 3.363037%, 29.940796%)" offset="0.285156"/><stop stop-opacity="1" stop-color="rgb(3.872681%, 3.410339%, 30.351257%)" offset="0.289062"/><stop stop-opacity="1" stop-color="rgb(3.924561%, 3.456116%, 30.760193%)" offset="0.292969"/><stop stop-opacity="1" stop-color="rgb(3.977966%, 3.501892%, 31.170654%)" offset="0.296875"/><stop stop-opacity="1" stop-color="rgb(4.029846%, 3.547668%, 31.581116%)" offset="0.300781"/><stop stop-opacity="1" stop-color="rgb(4.081726%, 3.594971%, 31.991577%)" offset="0.304688"/><stop stop-opacity="1" stop-color="rgb(4.133606%, 3.640747%, 32.400513%)" offset="0.308594"/><stop stop-opacity="1" stop-color="rgb(4.187012%, 3.686523%, 32.810974%)" offset="0.3125"/><stop stop-opacity="1" stop-color="rgb(4.238892%, 3.7323%, 33.221436%)" offset="0.316406"/><stop stop-opacity="1" stop-color="rgb(4.290771%, 3.779602%, 33.631897%)" offset="0.320312"/><stop stop-opacity="1" stop-color="rgb(4.342651%, 3.825378%, 34.042358%)" offset="0.324219"/><stop stop-opacity="1" stop-color="rgb(4.396057%, 3.871155%, 34.45282%)" offset="0.328125"/><stop stop-opacity="1" stop-color="rgb(4.447937%, 3.916931%, 34.861755%)" offset="0.332031"/><stop stop-opacity="1" stop-color="rgb(4.501343%, 3.962708%, 35.272217%)" offset="0.335938"/><stop stop-opacity="1" stop-color="rgb(4.553223%, 4.008484%, 35.682678%)" offset="0.339844"/><stop stop-opacity="1" stop-color="rgb(4.605103%, 4.055786%, 36.09314%)" offset="0.34375"/><stop stop-opacity="1" stop-color="rgb(4.656982%, 4.101562%, 36.502075%)" offset="0.347656"/><stop stop-opacity="1" stop-color="rgb(4.710388%, 4.147339%, 36.912537%)" offset="0.351562"/><stop stop-opacity="1" stop-color="rgb(4.762268%, 4.193115%, 37.322998%)" offset="0.355469"/><stop stop-opacity="1" stop-color="rgb(4.814148%, 4.240417%, 37.733459%)" offset="0.359375"/><stop stop-opacity="1" stop-color="rgb(4.866028%, 4.286194%, 38.143921%)" offset="0.363281"/><stop stop-opacity="1" stop-color="rgb(4.919434%, 4.33197%, 38.554382%)" offset="0.367188"/><stop stop-opacity="1" stop-color="rgb(4.971313%, 4.377747%, 38.963318%)" offset="0.371094"/><stop stop-opacity="1" stop-color="rgb(5.024719%, 4.423523%, 39.373779%)" offset="0.375"/><stop stop-opacity="1" stop-color="rgb(5.076599%, 4.469299%, 39.784241%)" offset="0.378906"/><stop stop-opacity="1" stop-color="rgb(5.128479%, 4.516602%, 40.194702%)" offset="0.382812"/><stop stop-opacity="1" stop-color="rgb(5.180359%, 4.562378%, 40.603638%)" offset="0.386719"/><stop stop-opacity="1" stop-color="rgb(5.233765%, 4.608154%, 41.014099%)" offset="0.390625"/><stop stop-opacity="1" stop-color="rgb(5.285645%, 4.653931%, 41.424561%)" offset="0.394531"/><stop stop-opacity="1" stop-color="rgb(5.33905%, 4.701233%, 41.835022%)" offset="0.398438"/><stop stop-opacity="1" stop-color="rgb(5.39093%, 4.747009%, 42.245483%)" offset="0.402344"/><stop stop-opacity="1" stop-color="rgb(5.44281%, 4.792786%, 42.655945%)" offset="0.40625"/><stop stop-opacity="1" stop-color="rgb(5.49469%, 4.838562%, 43.06488%)" offset="0.410156"/><stop stop-opacity="1" stop-color="rgb(5.548096%, 4.885864%, 43.475342%)" offset="0.414062"/><stop stop-opacity="1" stop-color="rgb(5.599976%, 4.931641%, 43.885803%)" offset="0.417969"/><stop stop-opacity="1" stop-color="rgb(5.651855%, 4.977417%, 44.296265%)" offset="0.421875"/><stop stop-opacity="1" stop-color="rgb(5.703735%, 5.023193%, 44.7052%)" offset="0.425781"/><stop stop-opacity="1" stop-color="rgb(5.757141%, 5.06897%, 45.115662%)" offset="0.429688"/><stop stop-opacity="1" stop-color="rgb(5.809021%, 5.114746%, 45.526123%)" offset="0.433594"/><stop stop-opacity="1" stop-color="rgb(5.862427%, 5.162048%, 45.936584%)" offset="0.4375"/><stop stop-opacity="1" stop-color="rgb(5.914307%, 5.207825%, 46.347046%)" offset="0.441406"/><stop stop-opacity="1" stop-color="rgb(5.966187%, 5.253601%, 46.757507%)" offset="0.445312"/><stop stop-opacity="1" stop-color="rgb(6.018066%, 5.299377%, 47.166443%)" offset="0.449219"/><stop stop-opacity="1" stop-color="rgb(6.071472%, 5.34668%, 47.576904%)" offset="0.453125"/><stop stop-opacity="1" stop-color="rgb(6.123352%, 5.392456%, 47.987366%)" offset="0.457031"/><stop stop-opacity="1" stop-color="rgb(6.175232%, 5.438232%, 48.397827%)" offset="0.460938"/><stop stop-opacity="1" stop-color="rgb(6.227112%, 5.484009%, 48.806763%)" offset="0.464844"/><stop stop-opacity="1" stop-color="rgb(6.280518%, 5.529785%, 49.217224%)" offset="0.46875"/><stop stop-opacity="1" stop-color="rgb(6.332397%, 5.575562%, 49.627686%)" offset="0.472656"/><stop stop-opacity="1" stop-color="rgb(6.385803%, 5.622864%, 50.038147%)" offset="0.476562"/><stop stop-opacity="1" stop-color="rgb(6.437683%, 5.66864%, 50.448608%)" offset="0.480469"/><stop stop-opacity="1" stop-color="rgb(6.489563%, 5.714417%, 50.85907%)" offset="0.484375"/><stop stop-opacity="1" stop-color="rgb(6.541443%, 5.760193%, 51.268005%)" offset="0.488281"/><stop stop-opacity="1" stop-color="rgb(6.594849%, 5.807495%, 51.678467%)" offset="0.492188"/><stop stop-opacity="1" stop-color="rgb(6.646729%, 5.853271%, 52.088928%)" offset="0.496094"/><stop stop-opacity="1" stop-color="rgb(6.698608%, 5.899048%, 52.49939%)" offset="0.5"/><stop stop-opacity="1" stop-color="rgb(6.646729%, 5.853271%, 52.137756%)" offset="0.503906"/><stop stop-opacity="1" stop-color="rgb(6.594849%, 5.807495%, 51.777649%)" offset="0.507812"/><stop stop-opacity="1" stop-color="rgb(6.541443%, 5.760193%, 51.416016%)" offset="0.511719"/><stop stop-opacity="1" stop-color="rgb(6.489563%, 5.714417%, 51.055908%)" offset="0.515625"/><stop stop-opacity="1" stop-color="rgb(6.437683%, 5.66864%, 50.694275%)" offset="0.519531"/><stop stop-opacity="1" stop-color="rgb(6.385803%, 5.622864%, 50.334167%)" offset="0.523438"/><stop stop-opacity="1" stop-color="rgb(6.332397%, 5.575562%, 49.972534%)" offset="0.527344"/><stop stop-opacity="1" stop-color="rgb(6.280518%, 5.529785%, 49.612427%)" offset="0.53125"/><stop stop-opacity="1" stop-color="rgb(6.227112%, 5.484009%, 49.250793%)" offset="0.535156"/><stop stop-opacity="1" stop-color="rgb(6.175232%, 5.438232%, 48.88916%)" offset="0.539062"/><stop stop-opacity="1" stop-color="rgb(6.123352%, 5.392456%, 48.527527%)" offset="0.542969"/><stop stop-opacity="1" stop-color="rgb(6.071472%, 5.34668%, 48.167419%)" offset="0.546875"/><stop stop-opacity="1" stop-color="rgb(6.018066%, 5.299377%, 47.805786%)" offset="0.550781"/><stop stop-opacity="1" stop-color="rgb(5.966187%, 5.253601%, 47.445679%)" offset="0.554688"/><stop stop-opacity="1" stop-color="rgb(5.914307%, 5.207825%, 47.084045%)" offset="0.558594"/><stop stop-opacity="1" stop-color="rgb(5.862427%, 5.162048%, 46.723938%)" offset="0.5625"/><stop stop-opacity="1" stop-color="rgb(5.809021%, 5.114746%, 46.362305%)" offset="0.566406"/><stop stop-opacity="1" stop-color="rgb(5.757141%, 5.06897%, 46.002197%)" offset="0.570312"/><stop stop-opacity="1" stop-color="rgb(5.703735%, 5.023193%, 45.640564%)" offset="0.574219"/><stop stop-opacity="1" stop-color="rgb(5.651855%, 4.977417%, 45.280457%)" offset="0.578125"/><stop stop-opacity="1" stop-color="rgb(5.599976%, 4.931641%, 44.918823%)" offset="0.582031"/><stop stop-opacity="1" stop-color="rgb(5.548096%, 4.885864%, 44.558716%)" offset="0.585938"/><stop stop-opacity="1" stop-color="rgb(5.49469%, 4.838562%, 44.197083%)" offset="0.589844"/><stop stop-opacity="1" stop-color="rgb(5.44281%, 4.792786%, 43.836975%)" offset="0.59375"/><stop stop-opacity="1" stop-color="rgb(5.39093%, 4.747009%, 43.475342%)" offset="0.597656"/><stop stop-opacity="1" stop-color="rgb(5.33905%, 4.701233%, 43.115234%)" offset="0.601562"/><stop stop-opacity="1" stop-color="rgb(5.285645%, 4.653931%, 42.753601%)" offset="0.605469"/><stop stop-opacity="1" stop-color="rgb(5.233765%, 4.608154%, 42.393494%)" offset="0.609375"/><stop stop-opacity="1" stop-color="rgb(5.180359%, 4.562378%, 42.03186%)" offset="0.613281"/><stop stop-opacity="1" stop-color="rgb(5.128479%, 4.516602%, 41.671753%)" offset="0.617188"/><stop stop-opacity="1" stop-color="rgb(5.076599%, 4.469299%, 41.31012%)" offset="0.621094"/><stop stop-opacity="1" stop-color="rgb(5.024719%, 4.423523%, 40.948486%)" offset="0.625"/><stop stop-opacity="1" stop-color="rgb(4.971313%, 4.377747%, 40.586853%)" offset="0.628906"/><stop stop-opacity="1" stop-color="rgb(4.919434%, 4.33197%, 40.226746%)" offset="0.632812"/><stop stop-opacity="1" stop-color="rgb(4.866028%, 4.286194%, 39.865112%)" offset="0.636719"/><stop stop-opacity="1" stop-color="rgb(4.814148%, 4.240417%, 39.505005%)" offset="0.640625"/><stop stop-opacity="1" stop-color="rgb(4.762268%, 4.193115%, 39.143372%)" offset="0.644531"/><stop stop-opacity="1" stop-color="rgb(4.710388%, 4.147339%, 38.783264%)" offset="0.648438"/><stop stop-opacity="1" stop-color="rgb(4.656982%, 4.101562%, 38.421631%)" offset="0.652344"/><stop stop-opacity="1" stop-color="rgb(4.605103%, 4.055786%, 38.061523%)" offset="0.65625"/><stop stop-opacity="1" stop-color="rgb(4.553223%, 4.008484%, 37.69989%)" offset="0.660156"/><stop stop-opacity="1" stop-color="rgb(4.501343%, 3.962708%, 37.339783%)" offset="0.664062"/><stop stop-opacity="1" stop-color="rgb(4.447937%, 3.916931%, 36.978149%)" offset="0.667969"/><stop stop-opacity="1" stop-color="rgb(4.396057%, 3.871155%, 36.618042%)" offset="0.671875"/><stop stop-opacity="1" stop-color="rgb(4.342651%, 3.825378%, 36.256409%)" offset="0.675781"/><stop stop-opacity="1" stop-color="rgb(4.290771%, 3.779602%, 35.896301%)" offset="0.679688"/><stop stop-opacity="1" stop-color="rgb(4.238892%, 3.7323%, 35.534668%)" offset="0.683594"/><stop stop-opacity="1" stop-color="rgb(4.187012%, 3.686523%, 35.174561%)" offset="0.6875"/><stop stop-opacity="1" stop-color="rgb(4.133606%, 3.640747%, 34.812927%)" offset="0.691406"/><stop stop-opacity="1" stop-color="rgb(4.081726%, 3.594971%, 34.45282%)" offset="0.695312"/><stop stop-opacity="1" stop-color="rgb(4.029846%, 3.547668%, 34.091187%)" offset="0.699219"/><stop stop-opacity="1" stop-color="rgb(3.977966%, 3.501892%, 33.731079%)" offset="0.703125"/><stop stop-opacity="1" stop-color="rgb(3.924561%, 3.456116%, 33.369446%)" offset="0.707031"/><stop stop-opacity="1" stop-color="rgb(3.872681%, 3.410339%, 33.009338%)" offset="0.710938"/><stop stop-opacity="1" stop-color="rgb(3.819275%, 3.363037%, 32.647705%)" offset="0.714844"/><stop stop-opacity="1" stop-color="rgb(3.767395%, 3.317261%, 32.286072%)" offset="0.71875"/><stop stop-opacity="1" stop-color="rgb(3.715515%, 3.271484%, 31.924438%)" offset="0.722656"/><stop stop-opacity="1" stop-color="rgb(3.663635%, 3.225708%, 31.564331%)" offset="0.726562"/><stop stop-opacity="1" stop-color="rgb(3.610229%, 3.179932%, 31.202698%)" offset="0.730469"/><stop stop-opacity="1" stop-color="rgb(3.55835%, 3.134155%, 30.84259%)" offset="0.734375"/><stop stop-opacity="1" stop-color="rgb(3.50647%, 3.086853%, 30.480957%)" offset="0.738281"/><stop stop-opacity="1" stop-color="rgb(3.45459%, 3.041077%, 30.12085%)" offset="0.742188"/><stop stop-opacity="1" stop-color="rgb(3.401184%, 2.9953%, 29.759216%)" offset="0.746094"/><stop stop-opacity="1" stop-color="rgb(3.349304%, 2.949524%, 29.399109%)" offset="0.75"/><stop stop-opacity="1" stop-color="rgb(3.295898%, 2.902222%, 29.037476%)" offset="0.753906"/><stop stop-opacity="1" stop-color="rgb(3.244019%, 2.856445%, 28.677368%)" offset="0.757812"/><stop stop-opacity="1" stop-color="rgb(3.192139%, 2.810669%, 28.315735%)" offset="0.761719"/><stop stop-opacity="1" stop-color="rgb(3.140259%, 2.764893%, 27.955627%)" offset="0.765625"/><stop stop-opacity="1" stop-color="rgb(3.086853%, 2.719116%, 27.593994%)" offset="0.769531"/><stop stop-opacity="1" stop-color="rgb(3.034973%, 2.67334%, 27.233887%)" offset="0.773438"/><stop stop-opacity="1" stop-color="rgb(2.983093%, 2.626038%, 26.872253%)" offset="0.777344"/><stop stop-opacity="1" stop-color="rgb(2.931213%, 2.580261%, 26.512146%)" offset="0.78125"/><stop stop-opacity="1" stop-color="rgb(2.877808%, 2.534485%, 26.150513%)" offset="0.785156"/><stop stop-opacity="1" stop-color="rgb(2.825928%, 2.488708%, 25.790405%)" offset="0.789062"/><stop stop-opacity="1" stop-color="rgb(2.772522%, 2.441406%, 25.428772%)" offset="0.792969"/><stop stop-opacity="1" stop-color="rgb(2.720642%, 2.39563%, 25.068665%)" offset="0.796875"/><stop stop-opacity="1" stop-color="rgb(2.668762%, 2.349854%, 24.707031%)" offset="0.800781"/><stop stop-opacity="1" stop-color="rgb(2.616882%, 2.304077%, 24.345398%)" offset="0.804688"/><stop stop-opacity="1" stop-color="rgb(2.563477%, 2.256775%, 23.983765%)" offset="0.808594"/><stop stop-opacity="1" stop-color="rgb(2.511597%, 2.210999%, 23.623657%)" offset="0.8125"/><stop stop-opacity="1" stop-color="rgb(2.458191%, 2.165222%, 23.262024%)" offset="0.816406"/><stop stop-opacity="1" stop-color="rgb(2.406311%, 2.119446%, 22.901917%)" offset="0.820312"/><stop stop-opacity="1" stop-color="rgb(2.354431%, 2.073669%, 22.540283%)" offset="0.824219"/><stop stop-opacity="1" stop-color="rgb(2.302551%, 2.027893%, 22.180176%)" offset="0.828125"/><stop stop-opacity="1" stop-color="rgb(2.249146%, 1.980591%, 21.818542%)" offset="0.832031"/><stop stop-opacity="1" stop-color="rgb(2.197266%, 1.934814%, 21.458435%)" offset="0.835938"/><stop stop-opacity="1" stop-color="rgb(2.145386%, 1.889038%, 21.096802%)" offset="0.839844"/><stop stop-opacity="1" stop-color="rgb(2.093506%, 1.843262%, 20.736694%)" offset="0.84375"/><stop stop-opacity="1" stop-color="rgb(2.0401%, 1.795959%, 20.375061%)" offset="0.847656"/><stop stop-opacity="1" stop-color="rgb(1.98822%, 1.750183%, 20.014954%)" offset="0.851562"/><stop stop-opacity="1" stop-color="rgb(1.934814%, 1.704407%, 19.65332%)" offset="0.855469"/><stop stop-opacity="1" stop-color="rgb(1.882935%, 1.65863%, 19.293213%)" offset="0.859375"/><stop stop-opacity="1" stop-color="rgb(1.831055%, 1.612854%, 18.93158%)" offset="0.863281"/><stop stop-opacity="1" stop-color="rgb(1.779175%, 1.567078%, 18.571472%)" offset="0.867188"/><stop stop-opacity="1" stop-color="rgb(1.725769%, 1.519775%, 18.209839%)" offset="0.871094"/><stop stop-opacity="1" stop-color="rgb(1.673889%, 1.473999%, 17.849731%)" offset="0.875"/><stop stop-opacity="1" stop-color="rgb(1.622009%, 1.428223%, 17.488098%)" offset="0.878906"/><stop stop-opacity="1" stop-color="rgb(1.570129%, 1.382446%, 17.127991%)" offset="0.882812"/><stop stop-opacity="1" stop-color="rgb(1.516724%, 1.335144%, 16.766357%)" offset="0.886719"/><stop stop-opacity="1" stop-color="rgb(1.464844%, 1.289368%, 16.40625%)" offset="0.890625"/><stop stop-opacity="1" stop-color="rgb(1.411438%, 1.243591%, 16.044617%)" offset="0.894531"/><stop stop-opacity="1" stop-color="rgb(1.359558%, 1.197815%, 15.682983%)" offset="0.898438"/><stop stop-opacity="1" stop-color="rgb(1.307678%, 1.150513%, 15.32135%)" offset="0.902344"/><stop stop-opacity="1" stop-color="rgb(1.255798%, 1.104736%, 14.961243%)" offset="0.90625"/><stop stop-opacity="1" stop-color="rgb(1.202393%, 1.05896%, 14.599609%)" offset="0.910156"/><stop stop-opacity="1" stop-color="rgb(1.150513%, 1.013184%, 14.239502%)" offset="0.914062"/><stop stop-opacity="1" stop-color="rgb(1.098633%, 0.967407%, 13.877869%)" offset="0.917969"/><stop stop-opacity="1" stop-color="rgb(1.046753%, 0.921631%, 13.517761%)" offset="0.921875"/><stop stop-opacity="1" stop-color="rgb(0.993347%, 0.874329%, 13.156128%)" offset="0.925781"/><stop stop-opacity="1" stop-color="rgb(0.941467%, 0.828552%, 12.796021%)" offset="0.929688"/><stop stop-opacity="1" stop-color="rgb(0.888062%, 0.782776%, 12.434387%)" offset="0.933594"/><stop stop-opacity="1" stop-color="rgb(0.836182%, 0.737%, 12.07428%)" offset="0.9375"/><stop stop-opacity="1" stop-color="rgb(0.784302%, 0.689697%, 11.712646%)" offset="0.941406"/><stop stop-opacity="1" stop-color="rgb(0.732422%, 0.643921%, 11.352539%)" offset="0.945312"/><stop stop-opacity="1" stop-color="rgb(0.679016%, 0.598145%, 10.990906%)" offset="0.949219"/><stop stop-opacity="1" stop-color="rgb(0.627136%, 0.552368%, 10.630798%)" offset="0.953125"/><stop stop-opacity="1" stop-color="rgb(0.575256%, 0.506592%, 10.269165%)" offset="0.957031"/><stop stop-opacity="1" stop-color="rgb(0.523376%, 0.460815%, 9.909058%)" offset="0.960938"/><stop stop-opacity="1" stop-color="rgb(0.469971%, 0.413513%, 9.547424%)" offset="0.964844"/><stop stop-opacity="1" stop-color="rgb(0.418091%, 0.367737%, 9.187317%)" offset="0.96875"/><stop stop-opacity="1" stop-color="rgb(0.364685%, 0.32196%, 8.825684%)" offset="0.972656"/><stop stop-opacity="1" stop-color="rgb(0.312805%, 0.276184%, 8.465576%)" offset="0.976562"/><stop stop-opacity="1" stop-color="rgb(0.260925%, 0.228882%, 8.103943%)" offset="0.980469"/><stop stop-opacity="1" stop-color="rgb(0.209045%, 0.183105%, 7.74231%)" offset="0.984375"/><stop stop-opacity="1" stop-color="rgb(0.15564%, 0.137329%, 7.380676%)" offset="0.988281"/><stop stop-opacity="1" stop-color="rgb(0.10376%, 0.0915527%, 7.020569%)" offset="0.992188"/><stop stop-opacity="1" stop-color="rgb(0.0518799%, 0.0457764%, 6.658936%)" offset="0.996094"/><stop stop-opacity="1" stop-color="rgb(0%, 0%, 6.298828%)" offset="1"/></linearGradient></defs><g clip-path="url(#d965a8ebab)"><path fill="#ffffff" d="M 1.933594 0 L 118.066406 0 L 118.066406 29.03125 L 1.933594 29.03125 Z M 1.933594 0 " fill-opacity="1" fill-rule="nonzero"/><path fill="url(#3adea47113)" d="M 1.933594 0 L 1.933594 29.03125 L 118.066406 29.03125 L 118.066406 0 Z M 1.933594 0 " fill-rule="nonzero"/></g><g fill="#ffffff" fill-opacity="1"><g transform="translate(21.545999, 17.096779)"><g><path d="M 0.625 -5.53125 L 2.53125 -5.53125 C 2.863281 -5.53125 3.148438 -5.515625 3.390625 -5.484375 C 3.628906 -5.453125 3.859375 -5.367188 4.078125 -5.234375 C 4.304688 -5.097656 4.5 -4.914062 4.65625 -4.6875 C 4.820312 -4.457031 4.953125 -4.191406 5.046875 -3.890625 C 5.148438 -3.585938 5.203125 -3.222656 5.203125 -2.796875 C 5.203125 -1.984375 5.003906 -1.3125 4.609375 -0.78125 C 4.222656 -0.257812 3.554688 0 2.609375 0 L 0.625 0 Z M 1.359375 -0.65625 L 2.53125 -0.65625 C 2.78125 -0.65625 3 -0.671875 3.1875 -0.703125 C 3.375 -0.734375 3.566406 -0.8125 3.765625 -0.9375 C 3.960938 -1.070312 4.125 -1.289062 4.25 -1.59375 C 4.375 -1.90625 4.4375 -2.3125 4.4375 -2.8125 C 4.4375 -3.09375 4.410156 -3.351562 4.359375 -3.59375 C 4.316406 -3.832031 4.226562 -4.050781 4.09375 -4.25 C 3.957031 -4.445312 3.804688 -4.585938 3.640625 -4.671875 C 3.472656 -4.765625 3.304688 -4.820312 3.140625 -4.84375 C 2.972656 -4.863281 2.765625 -4.875 2.515625 -4.875 L 1.359375 -4.875 Z M 1.359375 -0.65625 "/></g></g><g transform="translate(27.136983, 17.096779)"><g><path d="M 4.75 0 L 0.609375 0 L 0.609375 -5.53125 L 4.625 -5.53125 L 4.625 -4.875 L 1.34375 -4.875 L 1.34375 -3.1875 L 4.40625 -3.1875 L 4.40625 -2.53125 L 1.34375 -2.53125 L 1.34375 -0.65625 L 4.75 -0.65625 Z M 4.75 0 "/></g></g><g transform="translate(32.300799, 17.096779)"><g><path d="M 3.875 -3.90625 C 3.851562 -4.257812 3.726562 -4.523438 3.5 -4.703125 C 3.28125 -4.878906 2.957031 -4.96875 2.53125 -4.96875 C 2.15625 -4.96875 1.847656 -4.894531 1.609375 -4.75 C 1.378906 -4.613281 1.265625 -4.410156 1.265625 -4.140625 C 1.265625 -3.898438 1.351562 -3.722656 1.53125 -3.609375 C 1.71875 -3.492188 2.066406 -3.378906 2.578125 -3.265625 C 3.035156 -3.160156 3.410156 -3.054688 3.703125 -2.953125 C 3.992188 -2.847656 4.242188 -2.679688 4.453125 -2.453125 C 4.660156 -2.234375 4.765625 -1.9375 4.765625 -1.5625 C 4.765625 -1.082031 4.570312 -0.6875 4.1875 -0.375 C 3.8125 -0.0625 3.316406 0.09375 2.703125 0.09375 C 1.929688 0.09375 1.347656 -0.078125 0.953125 -0.421875 C 0.566406 -0.773438 0.363281 -1.226562 0.34375 -1.78125 L 1.046875 -1.84375 C 1.078125 -1.394531 1.242188 -1.066406 1.546875 -0.859375 C 1.859375 -0.660156 2.234375 -0.5625 2.671875 -0.5625 C 3.085938 -0.5625 3.421875 -0.644531 3.671875 -0.8125 C 3.921875 -0.988281 4.046875 -1.21875 4.046875 -1.5 C 4.046875 -1.800781 3.914062 -2.019531 3.65625 -2.15625 C 3.394531 -2.300781 2.953125 -2.441406 2.328125 -2.578125 C 1.703125 -2.710938 1.25 -2.898438 0.96875 -3.140625 C 0.695312 -3.390625 0.5625 -3.707031 0.5625 -4.09375 C 0.5625 -4.539062 0.734375 -4.90625 1.078125 -5.1875 C 1.429688 -5.476562 1.90625 -5.625 2.5 -5.625 C 3.113281 -5.625 3.609375 -5.476562 3.984375 -5.1875 C 4.359375 -4.90625 4.554688 -4.5 4.578125 -3.96875 Z M 3.875 -3.90625 "/></g></g><g transform="translate(37.464615, 17.096779)"><g><path d="M 1.453125 0 L 0.703125 0 L 0.703125 -5.53125 L 1.453125 -5.53125 Z M 1.453125 0 "/></g></g><g transform="translate(39.615575, 17.096779)"><g><path d="M 5.515625 -0.78125 C 4.816406 -0.195312 4.054688 0.09375 3.234375 0.09375 C 2.378906 0.09375 1.691406 -0.160156 1.171875 -0.671875 C 0.660156 -1.191406 0.40625 -1.882812 0.40625 -2.75 C 0.40625 -3.269531 0.507812 -3.753906 0.71875 -4.203125 C 0.925781 -4.660156 1.238281 -5.007812 1.65625 -5.25 C 2.070312 -5.5 2.582031 -5.625 3.1875 -5.625 C 3.800781 -5.625 4.296875 -5.488281 4.671875 -5.21875 C 5.046875 -4.945312 5.300781 -4.535156 5.4375 -3.984375 L 4.78125 -3.8125 C 4.675781 -4.207031 4.488281 -4.503906 4.21875 -4.703125 C 3.957031 -4.898438 3.613281 -5 3.1875 -5 C 2.507812 -5 2 -4.796875 1.65625 -4.390625 C 1.320312 -3.984375 1.15625 -3.453125 1.15625 -2.796875 C 1.15625 -2.296875 1.238281 -1.878906 1.40625 -1.546875 C 1.570312 -1.222656 1.816406 -0.976562 2.140625 -0.8125 C 2.460938 -0.644531 2.8125 -0.5625 3.1875 -0.5625 C 3.769531 -0.5625 4.3125 -0.753906 4.8125 -1.140625 L 4.8125 -2.15625 L 3.1875 -2.15625 L 3.1875 -2.828125 L 5.515625 -2.828125 Z M 5.515625 -0.78125 "/></g></g><g transform="translate(45.637507, 17.096779)"><g><path d="M 4.96875 0 L 4.21875 0 L 1.328125 -4.34375 L 1.3125 -4.34375 L 1.3125 0 L 0.609375 0 L 0.609375 -5.53125 L 1.359375 -5.53125 L 4.25 -1.1875 L 4.265625 -1.1875 L 4.265625 -5.53125 L 4.96875 -5.53125 Z M 4.96875 0 "/></g></g></g><g fill="#ffffff" fill-opacity="1"><g transform="translate(51.233531, 17.096779)"><g/></g><g transform="translate(53.384491, 17.096779)"><g/></g></g><g fill="#ffffff" fill-opacity="1"><g transform="translate(55.537971, 17.096779)"><g><path d="M 3.71875 -2.953125 C 4.0625 -2.835938 4.320312 -2.660156 4.5 -2.421875 C 4.675781 -2.191406 4.765625 -1.921875 4.765625 -1.609375 C 4.765625 -1.296875 4.6875 -1.007812 4.53125 -0.75 C 4.375 -0.488281 4.148438 -0.296875 3.859375 -0.171875 C 3.566406 -0.0546875 3.175781 0 2.6875 0 L 0.578125 0 L 0.578125 -5.53125 L 2.65625 -5.53125 C 3.320312 -5.53125 3.789062 -5.382812 4.0625 -5.09375 C 4.34375 -4.800781 4.484375 -4.476562 4.484375 -4.125 C 4.484375 -3.882812 4.421875 -3.660156 4.296875 -3.453125 C 4.171875 -3.242188 3.976562 -3.078125 3.71875 -2.953125 Z M 1.3125 -3.21875 L 2.5 -3.21875 C 2.75 -3.21875 2.957031 -3.226562 3.125 -3.25 C 3.289062 -3.28125 3.4375 -3.351562 3.5625 -3.46875 C 3.695312 -3.59375 3.765625 -3.78125 3.765625 -4.03125 C 3.765625 -4.289062 3.695312 -4.484375 3.5625 -4.609375 C 3.4375 -4.734375 3.285156 -4.804688 3.109375 -4.828125 C 2.929688 -4.859375 2.695312 -4.875 2.40625 -4.875 L 1.3125 -4.875 Z M 1.3125 -0.65625 L 2.6875 -0.65625 C 3.175781 -0.65625 3.515625 -0.738281 3.703125 -0.90625 C 3.898438 -1.070312 4 -1.304688 4 -1.609375 C 4 -1.910156 3.894531 -2.144531 3.6875 -2.3125 C 3.488281 -2.476562 3.125 -2.5625 2.59375 -2.5625 L 1.3125 -2.5625 Z M 1.3125 -0.65625 "/></g></g><g transform="translate(60.701787, 17.096779)"><g><path d="M 5.109375 -5.53125 L 2.90625 -2.34375 L 2.90625 0 L 2.171875 0 L 2.171875 -2.34375 L 0.03125 -5.53125 L 0.921875 -5.53125 L 2.140625 -3.671875 C 2.265625 -3.484375 2.410156 -3.238281 2.578125 -2.9375 C 2.679688 -3.132812 3.242188 -4 4.265625 -5.53125 Z M 5.109375 -5.53125 "/></g></g><g transform="translate(65.865603, 17.096779)"><g/></g></g><g fill="#ffffff" fill-opacity="1"><g transform="translate(68.017824, 17.096779)"><g><path d="M 2.5625 -5.53125 L 3.671875 -5.53125 L 3.671875 -2.03125 C 3.671875 -1.476562 3.601562 -1.0625 3.46875 -0.78125 C 3.34375 -0.507812 3.144531 -0.296875 2.875 -0.140625 C 2.601562 0.015625 2.257812 0.09375 1.84375 0.09375 C 1.289062 0.09375 0.867188 -0.0546875 0.578125 -0.359375 C 0.285156 -0.660156 0.132812 -1.109375 0.125 -1.703125 L 1.1875 -1.828125 C 1.195312 -1.460938 1.265625 -1.207031 1.390625 -1.0625 C 1.515625 -0.925781 1.675781 -0.859375 1.875 -0.859375 C 2.125 -0.859375 2.300781 -0.929688 2.40625 -1.078125 C 2.507812 -1.222656 2.5625 -1.515625 2.5625 -1.953125 Z M 2.5625 -5.53125 "/></g></g><g transform="translate(72.323524, 17.096779)"><g><path d="M 5.546875 0 L 4.34375 0 L 3.859375 -1.265625 L 1.640625 -1.265625 L 1.1875 0 L 0 0 L 2.15625 -5.53125 L 3.34375 -5.53125 Z M 3.5 -2.1875 L 2.734375 -4.25 L 1.984375 -2.1875 Z M 3.5 -2.1875 "/></g></g><g transform="translate(77.914508, 17.096779)"><g><path d="M 2.015625 0 L 2.015625 -2.328125 L 0 -5.53125 L 1.296875 -5.53125 L 2.59375 -3.34375 L 3.875 -5.53125 L 5.171875 -5.53125 L 3.125 -2.3125 L 3.125 0 Z M 2.015625 0 "/></g></g><g transform="translate(83.078324, 17.096779)"><g><path d="M 5.546875 0 L 4.34375 0 L 3.859375 -1.265625 L 1.640625 -1.265625 L 1.1875 0 L 0 0 L 2.15625 -5.53125 L 3.34375 -5.53125 Z M 3.5 -2.1875 L 2.734375 -4.25 L 1.984375 -2.1875 Z M 3.5 -2.1875 "/></g></g><g transform="translate(88.669308, 17.096779)"><g><path d="M 0.578125 0 L 0.578125 -5.53125 L 1.65625 -5.53125 L 3.921875 -1.84375 L 3.921875 -5.53125 L 4.96875 -5.53125 L 4.96875 0 L 3.84375 0 L 1.609375 -3.609375 L 1.609375 0 Z M 0.578125 0 "/></g></g><g transform="translate(94.260291, 17.096779)"><g><path d="M 2.015625 0 L 2.015625 -2.328125 L 0 -5.53125 L 1.296875 -5.53125 L 2.59375 -3.34375 L 3.875 -5.53125 L 5.171875 -5.53125 L 3.125 -2.3125 L 3.125 0 Z M 2.015625 0 "/></g></g></g></svg>